<svg version="1.1" id="Layer_1" xmlns="http://www.w3.org/2000/svg" xmlns:xlink="http://www.w3.org/1999/xlink" x="0px" y="0px"
	 width="100%" viewBox="0 0 496 496" enable-background="new 0 0 496 496" xml:space="preserve">
<path fill="#000000" opacity="1.000000" stroke="none" 
	d="
M452.473846,27.855944 
	C467.490417,26.928522 479.750763,31.094648 488.186310,43.835640 
	C491.611481,49.009014 492.868805,54.776688 493.319061,60.769783 
	C494.636749,78.308640 489.433258,94.559410 483.170380,110.559029 
	C476.179504,128.418427 467.253845,145.300262 456.276001,161.000854 
	C450.109344,169.820450 443.509277,178.410202 436.387665,186.470154 
	C427.695374,196.307739 418.394226,205.624405 409.093384,214.902740 
	C398.738159,225.232925 386.940552,233.895493 375.705109,243.216904 
	C358.204803,257.735931 338.258118,267.620636 317.467865,276.135254 
	C315.506500,276.938507 314.618134,277.882111 314.310608,279.998871 
	C310.362579,307.175079 306.128296,334.294464 300.678009,361.231659 
	C297.623047,376.330444 295.056702,391.521393 290.476440,406.253143 
	C283.818604,427.667023 276.316772,448.765137 265.591949,468.554291 
	C264.019684,471.455444 262.089600,474.242493 259.499115,476.364899 
	C255.692429,479.483734 251.763733,479.016785 249.286942,475.008331 
	C246.755707,470.911865 246.892227,466.342560 248.619064,462.066711 
	C250.110565,458.373657 253.514648,457.309082 257.317657,457.665497 
	C259.889557,457.906555 261.145081,456.511871 262.336304,454.435059 
	C269.040314,442.746979 272.035736,429.741974 275.502930,416.960144 
	C284.961792,382.090363 293.048767,346.885590 300.101105,311.451965 
	C301.940521,302.209900 303.135315,292.838745 304.570435,283.518280 
	C304.713989,282.586090 304.468811,281.594055 304.370941,280.137268 
	C296.793121,281.731140 289.582855,283.397980 282.313354,284.745636 
	C266.847351,287.612671 251.403625,290.811340 235.542542,290.323151 
	C232.491028,290.229248 230.738770,291.347198 229.293365,294.101135 
	C212.798798,325.528473 192.556732,354.251434 165.931442,377.922302 
	C148.213455,393.674255 128.263763,406.141052 105.855835,414.467743 
	C93.471855,419.069611 80.855125,422.613617 67.623680,422.256134 
	C49.308575,421.761292 32.428967,416.626038 19.712423,402.615173 
	C9.287463,391.129181 5.584250,377.214844 8.416137,361.920532 
	C12.415750,340.319611 25.779932,324.586121 41.866810,310.955994 
	C58.364796,296.977539 77.544884,287.901947 98.619591,283.359894 
	C110.887329,280.715942 123.388809,279.276672 136.000763,278.496185 
	C155.381042,277.296936 174.701462,275.554321 194.162643,275.420380 
	C203.883713,275.353455 213.619125,273.527191 223.422302,273.659210 
	C227.501221,273.714111 229.438934,271.751190 230.799973,267.869293 
	C243.264862,232.317612 253.940887,196.189590 265.654755,160.397537 
	C268.861603,150.598923 272.958252,141.151764 277.232758,131.791183 
	C280.056427,125.607697 281.034485,119.711807 276.043915,114.186890 
	C273.217926,111.058296 273.857971,108.215866 276.537903,105.517693 
	C281.806091,100.213585 286.799683,94.581894 293.178833,90.532486 
	C294.824585,89.487778 296.321869,86.767105 298.713165,88.752533 
	C301.026031,90.672821 302.058624,93.557816 301.052521,96.436272 
	C299.468567,100.967873 297.688812,105.477592 295.497620,109.742615 
	C283.627258,132.847748 274.027618,156.873550 266.402130,181.671799 
	C257.731018,209.870560 249.368301,238.164200 240.897125,266.424255 
	C240.475708,267.830200 240.298126,269.309204 239.952347,271.025452 
	C243.375900,272.130615 246.703217,271.790863 249.910507,271.518188 
	C259.471283,270.705414 269.043640,269.872406 278.544647,268.562744 
	C286.081787,267.523773 293.517548,265.755096 301.004150,264.341461 
	C305.074463,263.572906 306.231018,261.135559 306.892120,257.055908 
	C312.912720,219.902908 323.271515,183.957214 337.506622,149.102219 
	C344.814301,131.209320 353.048950,113.738213 363.408630,97.476791 
	C379.359375,72.439156 398.590057,50.457718 425.658630,36.632847 
	C434.013092,32.365940 442.866608,29.704763 452.473846,27.855944 
M479.498901,103.085899 
	C482.798462,92.034119 485.041870,80.894653 482.623199,69.303070 
	C480.434937,58.815666 475.311493,50.623215 464.413971,47.781036 
	C452.693665,44.724274 441.082977,45.877533 429.740540,50.132038 
	C410.328461,57.413456 395.098663,70.587685 382.298859,86.155396 
	C360.389984,112.802094 346.994385,144.087402 336.309631,176.604858 
	C329.578400,197.090424 324.655609,218.053055 319.986115,239.073517 
	C318.479370,245.856308 317.549622,252.767288 316.270050,260.112579 
	C317.857361,259.729553 318.528320,259.667480 319.114929,259.411774 
	C357.189270,242.816986 390.754974,219.588440 419.782867,189.970490 
	C429.734192,179.816864 439.305939,169.226501 447.967529,157.873688 
	C460.701080,141.183670 471.986938,123.685013 479.498901,103.085899 
M75.276825,408.652557 
	C79.050591,408.166412 82.888420,407.968170 86.587250,407.145203 
	C104.356834,403.191528 121.069954,396.400787 136.886841,387.485016 
	C148.462570,380.959961 159.519073,373.521027 169.331482,364.560791 
	C186.696701,348.703674 202.211151,331.221191 213.254562,310.227692 
	C216.468460,304.118103 219.272934,297.776001 221.144897,291.082184 
	C217.403549,289.338531 214.238861,291.378052 210.990341,291.343445 
	C193.704819,291.159210 176.476166,292.280243 159.223022,293.159363 
	C146.633667,293.800873 134.043320,294.100677 121.465103,295.243469 
	C103.878212,296.841248 86.714134,299.964600 70.222610,306.465942 
	C50.105728,314.396515 32.825409,326.037170 21.347954,344.786804 
	C8.922058,365.085785 15.314688,393.932831 40.111732,403.874878 
	C51.270447,408.348816 62.665466,408.897491 75.276825,408.652557 
z"/>
</svg>